<svg xmlns="http://www.w3.org/2000/svg" width="24" height="24" viewBox="0 0 24 24">
    <g fill="none" fill-rule="evenodd">
        <g fill="#FFF" fill-rule="nonzero">
            <g>
                <g>
                    <g>
                        <path d="M4.134 5.529l10.485 13.32c.04.05.004.125-.06.125H9.395c-.022 0-.044-.01-.058-.029l-5.32-6.681c-.01-.014-.016-.03-.016-.048V5.577c0-.073.09-.105.134-.048zM20 5.654v6.6c0 .018-.006.035-.017.049l-1.696 2.104c-.015.018-.036.028-.059.028h-5.165c-.063 0-.098-.075-.059-.125l6.862-8.704c.044-.057.134-.025.134.048z" transform="translate(-98 -124) translate(0 116) translate(98 8)"/>
                    </g>
                </g>
            </g>
        </g>
    </g>
</svg>
