<svg xmlns="http://www.w3.org/2000/svg" xmlns:xlink="http://www.w3.org/1999/xlink" width="177" height="150" version="1.1" viewBox="0 0 177 150"><title>Logos</title><defs><linearGradient id="linearGradient-1" x1="67.927%" x2="40.675%" y1="40.311%" y2="81.641%"><stop offset="18%" stop-color="#0052CC"/><stop offset="100%" stop-color="#2684FF"/></linearGradient><linearGradient id="linearGradient-2" x1="32.305%" x2="59.518%" y1="-23.325%" y2="17.855%"><stop offset="18%" stop-color="#0052CC"/><stop offset="100%" stop-color="#2684FF"/></linearGradient></defs><g id="Logos" fill="none" fill-rule="evenodd" stroke="none" stroke-width="1"><g id="jira-3" fill-rule="nonzero" transform="translate(35.000000, 21.000000)"><path id="Shape" fill="#2684FF" d="M105.705696,51.9209821 L58.1065074,4.58660714 L53.4942403,0 L17.6627523,35.6321429 L1.27784635,51.9209821 C-0.425948784,53.6240313 -0.425948784,56.3759687 1.27784635,58.0790179 L34.0130909,90.6321429 L53.4942403,110 L89.3207902,74.3678571 L89.8788054,73.8178571 L105.705696,58.1035714 C106.534097,57.2858004 107,56.173045 107,55.0122768 C107,53.8515086 106.534097,52.7387531 105.705696,51.9209821 Z M53.4942403,71.2642857 L37.1389635,55 L53.4942403,38.7357143 L69.8445789,55 L53.4942403,71.2642857 Z"/><path id="Path" fill="url(#linearGradient-1)" d="M53,38.6445299 C42.2639805,27.9872611 42.2108919,10.7221586 52.8811718,0 L17,35.6113693 L36.5274378,55 L53,38.6445299 Z"/><path id="Path" fill="url(#linearGradient-2)" d="M69.446952,55 L53,71.2982957 C63.7858387,81.9863246 63.7858387,99.3119711 53,110 L89,74.3557598 L69.446952,55 Z"/></g></g></svg>