<svg xmlns="http://www.w3.org/2000/svg" xmlns:xlink="http://www.w3.org/1999/xlink" width="177" height="150" version="1.1" viewBox="0 0 177 150"><title>Logos</title><defs><linearGradient id="linearGradient-1" x1="0%" x2="100%" y1="-.274%" y2="100.274%"><stop offset="0%" stop-color="#F6C338"/><stop offset="52.3%" stop-color="#FFD351"/><stop offset="100%" stop-color="#F6C338"/></linearGradient><linearGradient id="linearGradient-2" x1="100%" x2="0%" y1=".473%" y2="99.527%"><stop offset="0%" stop-color="#286EE6"/><stop offset="52.1%" stop-color="#4286FB"/><stop offset="100%" stop-color="#286EE6"/></linearGradient><linearGradient id="linearGradient-3" x1="65.332%" x2="35.956%" y1="0%" y2="100%"><stop offset="0%" stop-color="#069B5A"/><stop offset="53.1%" stop-color="#11AA62"/><stop offset="100%" stop-color="#069B5A"/></linearGradient></defs><g id="Logos" fill="none" fill-rule="evenodd" stroke="none" stroke-width="1"><g id="google-drive-1" fill-rule="nonzero" transform="translate(34.000000, 28.000000)"><polygon id="Path" fill="url(#linearGradient-1)" points="36 0 74.135 0 110 62 71.779 62"/><polygon id="Path" fill="url(#linearGradient-2)" points="110 62 90.819 95 19 95 38.224 62"/><polygon id="Path" fill="url(#linearGradient-3)" points="19.078 95 0 61.917 35.793 0 55 33.168"/><path id="Shape" fill="#000" d="M19,95 L54.7377127,61.9173442 L38.223535,61.9173442 L19,95 Z M110,61.9173442 L71.6819471,61.9173442 L63.2528355,47.4141825 L110,61.9173442 Z M35.729206,0 L46.7816635,47.1996387 L54.952741,33.1684734 L35.729206,0 Z" opacity=".1"/></g></g></svg>