<svg xmlns="http://www.w3.org/2000/svg" xmlns:xlink="http://www.w3.org/1999/xlink" width="177" height="150" version="1.1" viewBox="0 0 177 150"><title>Logos</title><defs><linearGradient id="linearGradient-1" x1="80.525%" x2="43.803%" y1="15.69%" y2="97.348%"><stop offset="0%" stop-color="#0052CC"/><stop offset="92%" stop-color="#2684FF"/></linearGradient></defs><g id="Logos" fill="none" fill-rule="evenodd" stroke="none" stroke-width="1"><g id="atlassian-1" fill-rule="nonzero" transform="translate(35.000000, 21.000000)"><path id="Path" fill="url(#linearGradient-1)" d="M32.2177437,50.2228454 C31.1791646,48.8591721 29.2398559,48.5964284 27.8794818,49.635084 C27.4950585,49.9399792 27.1849667,50.3291598 26.9728674,50.7729298 L0.336388365,104.364716 C-0.449192603,105.946205 0.18801967,107.868741 1.75999765,108.659896 C2.20126182,108.88437 2.68910685,109 3.18360694,108.998989 L40.2948533,108.998989 C41.5095132,109.030231 42.627261,108.335051 43.1420719,107.228169 C51.1517473,90.5899995 46.2964903,65.2936515 32.2177437,50.2228454 Z"/><path id="Path" fill="#2684FF" d="M51.4733618,1.73446471 C37.8211056,22.5862851 36.24436,49.0339597 47.3237511,71.3383072 L65.4063614,107.233778 C65.9512026,108.315801 67.0651049,109 68.2838287,109 L105.781771,109 C106.635913,109.001993 107.455652,108.666103 108.059623,108.066637 C108.663594,107.467171 109.002008,106.653546 109,105.805775 C109,105.310759 108.886342,104.822253 108.666811,104.377773 L56.948122,1.71943311 C56.4470574,0.669442923 55.3812876,0 54.2107419,0 C53.0401961,0 51.9744264,0.669442923 51.4733618,1.71943311 L51.4733618,1.73446471 Z"/></g></g></svg>